<svg width="47" height="47" viewBox="0 0 47 47" fill="none" xmlns="http://www.w3.org/2000/svg">
<g id="ph:car-profile-thin">
<path id="Vector" d="M44.0625 21.2969H38.4923L30.3242 13.1306C30.1204 12.9252 29.8778 12.7622 29.6106 12.6513C29.3433 12.5404 29.0567 12.4836 28.7673 12.4844H8.12953C7.76642 12.4838 7.4088 12.5731 7.08849 12.7441C6.76819 12.9152 6.49512 13.1627 6.29359 13.4648L0.857383 21.6237C0.777036 21.7444 0.734234 21.8862 0.734375 22.0313V30.8438C0.734375 31.4281 0.96649 31.9884 1.37966 32.4016C1.79282 32.8148 2.3532 33.0469 2.9375 33.0469H6.66262C6.83998 34.2696 7.45178 35.3876 8.38603 36.1961C9.32029 37.0046 10.5145 37.4496 11.75 37.4496C12.9855 37.4496 14.1797 37.0046 15.114 36.1961C16.0482 35.3876 16.66 34.2696 16.8374 33.0469H30.1626C30.34 34.2696 30.9518 35.3876 31.886 36.1961C32.8203 37.0046 34.0145 37.4496 35.25 37.4496C36.4855 37.4496 37.6797 37.0046 38.614 36.1961C39.5482 35.3876 40.16 34.2696 40.3374 33.0469H44.0625C44.6468 33.0469 45.2072 32.8148 45.6203 32.4016C46.0335 31.9884 46.2656 31.4281 46.2656 30.8438V23.5C46.2656 22.9157 46.0335 22.3553 45.6203 21.9422C45.2072 21.529 44.6468 21.2969 44.0625 21.2969ZM7.52734 14.2799C7.59359 14.1806 7.68306 14.0989 7.78799 14.042C7.89292 13.9851 8.01015 13.9546 8.12953 13.9531H28.7673C28.9615 13.9535 29.1476 14.0307 29.285 14.1679L36.414 21.2969H2.8402L7.52734 14.2799ZM11.75 35.9844C11.0238 35.9844 10.3139 35.769 9.71002 35.3656C9.10618 34.9621 8.63555 34.3886 8.35763 33.7177C8.07971 33.0467 8.007 32.3084 8.14868 31.5962C8.29036 30.8839 8.64007 30.2296 9.15359 29.7161C9.66711 29.2026 10.3214 28.8529 11.0337 28.7112C11.7459 28.5695 12.4842 28.6422 13.1552 28.9201C13.8261 29.1981 14.3996 29.6687 14.8031 30.2725C15.2065 30.8764 15.4219 31.5863 15.4219 32.3125C15.4219 33.2863 15.035 34.2203 14.3464 34.9089C13.6578 35.5975 12.7238 35.9844 11.75 35.9844ZM35.25 35.9844C34.5238 35.9844 33.8139 35.769 33.21 35.3656C32.6062 34.9621 32.1355 34.3886 31.8576 33.7177C31.5797 33.0467 31.507 32.3084 31.6487 31.5962C31.7904 30.8839 32.1401 30.2296 32.6536 29.7161C33.1671 29.2026 33.8214 28.8529 34.5337 28.7112C35.2459 28.5695 35.9842 28.6422 36.6552 28.9201C37.3261 29.1981 37.8996 29.6687 38.3031 30.2725C38.7065 30.8764 38.9219 31.5863 38.9219 32.3125C38.9219 33.2863 38.535 34.2203 37.8464 34.9089C37.1578 35.5975 36.2238 35.9844 35.25 35.9844ZM44.7969 30.8438C44.7969 31.0385 44.7195 31.2253 44.5818 31.363C44.4441 31.5008 44.2573 31.5781 44.0625 31.5781H40.3374C40.16 30.3554 39.5482 29.2375 38.614 28.4289C37.6797 27.6204 36.4855 27.1755 35.25 27.1755C34.0145 27.1755 32.8203 27.6204 31.886 28.4289C30.9518 29.2375 30.34 30.3554 30.1626 31.5781H16.8374C16.66 30.3554 16.0482 29.2375 15.114 28.4289C14.1797 27.6204 12.9855 27.1755 11.75 27.1755C10.5145 27.1755 9.32029 27.6204 8.38603 28.4289C7.45178 29.2375 6.83998 30.3554 6.66262 31.5781H2.9375C2.74273 31.5781 2.55594 31.5008 2.41822 31.363C2.2805 31.2253 2.20313 31.0385 2.20313 30.8438V22.7656H44.0625C44.2573 22.7656 44.4441 22.843 44.5818 22.9807C44.7195 23.1184 44.7969 23.3052 44.7969 23.5V30.8438Z" fill="#2F2F2F"/>
</g>
</svg>
