<svg width="29" height="29" viewBox="0 0 29 29" fill="none" xmlns="http://www.w3.org/2000/svg">
<g id="arcticons:pdfviewerplus">
<path id="Vector" d="M7.7931 7.79383H5.73893C5.09799 7.79383 4.4833 8.04844 4.03009 8.50166C3.57688 8.95487 3.32227 9.56956 3.32227 10.2105V23.4417C3.32544 24.0336 3.56197 24.6004 3.98051 25.0189C4.39905 25.4375 4.96579 25.674 5.55768 25.6772H18.7889C19.4299 25.6772 20.0446 25.4226 20.4978 24.9693C20.951 24.5161 21.2056 23.9014 21.2056 23.2605V21.2063M24.0029 9.15321H20.8733V15.4003M20.8733 12.2767H22.9154M10.0285 3.323C9.43662 3.32617 8.86988 3.56271 8.45134 3.98124C8.03281 4.39978 7.79627 4.96652 7.7931 5.55841V18.9709C7.79627 19.5628 8.03281 20.1295 8.45134 20.5481C8.86988 20.9666 9.43662 21.2032 10.0285 21.2063H23.441C24.0329 21.2032 24.5997 20.9666 25.0182 20.5481C25.4367 20.1295 25.6733 19.5628 25.6764 18.9709V5.55841C25.6733 4.96652 25.4367 4.39978 25.0182 3.98124C24.5997 3.56271 24.0329 3.32617 23.441 3.323H10.0285Z" stroke="#00A69C" stroke-linecap="round" stroke-linejoin="round"/>
<path id="Vector_2" d="M9.4668 15.3881V9.14099H11.5693C12.1253 9.14099 12.6586 9.36187 13.0517 9.75503C13.4449 10.1482 13.6658 10.6814 13.6658 11.2374C13.6658 11.7935 13.4449 12.3267 13.0517 12.7199C12.6586 13.113 12.1253 13.3339 11.5693 13.3339H9.4668M15.1701 15.4002V9.12891H16.2335C17.0651 9.12891 17.8626 9.45927 18.4507 10.0473C19.0387 10.6354 19.3691 11.4329 19.3691 12.2645C19.3691 13.0962 19.0387 13.8937 18.4507 14.4818C17.8626 15.0698 17.0651 15.4002 16.2335 15.4002H15.1701Z" stroke="#00A69C" stroke-linecap="round" stroke-linejoin="round"/>
</g>
</svg>
