<svg width="47" height="47" viewBox="0 0 47 47" fill="none" xmlns="http://www.w3.org/2000/svg">
<g id="ph:truck-thin">
<path id="Vector" d="M44.7436 21.7595L42.1733 15.3337C42.0093 14.9261 41.727 14.5768 41.3629 14.3307C40.9988 14.0847 40.5694 13.9532 40.1299 13.9531H33.0469V11.75C33.0469 11.5552 32.9695 11.3684 32.8318 11.2307C32.6941 11.093 32.5073 11.0156 32.3125 11.0156H4.40625C3.82194 11.0156 3.26157 11.2477 2.84841 11.6609C2.43524 12.0741 2.20313 12.6344 2.20312 13.2188V33.7812C2.20313 34.3656 2.43524 34.9259 2.84841 35.3391C3.26157 35.7523 3.82194 35.9844 4.40625 35.9844H8.13137C8.30873 37.2071 8.92053 38.325 9.85478 39.1336C10.789 39.9421 11.9832 40.3871 13.2188 40.3871C14.4543 40.3871 15.6485 39.9421 16.5827 39.1336C17.517 38.325 18.1288 37.2071 18.3061 35.9844H28.6939C28.8712 37.2071 29.483 38.325 30.4173 39.1336C31.3515 39.9421 32.5457 40.3871 33.7812 40.3871C35.0168 40.3871 36.211 39.9421 37.1452 39.1336C38.0795 38.325 38.6913 37.2071 38.8686 35.9844H42.5938C43.1781 35.9844 43.7384 35.7523 44.1516 35.3391C44.5648 34.9259 44.7969 34.3656 44.7969 33.7812V22.0312C44.7965 21.9381 44.7785 21.8459 44.7436 21.7595ZM33.0469 15.4219H40.1299C40.2768 15.4216 40.4204 15.4653 40.5421 15.5475C40.6639 15.6296 40.7582 15.7464 40.8129 15.8827L42.9775 21.2969H33.0469V15.4219ZM3.67188 13.2188C3.67188 13.024 3.74925 12.8372 3.88697 12.6995C4.02469 12.5617 4.21148 12.4844 4.40625 12.4844H31.5781V25.7031H3.67188V13.2188ZM13.2188 38.9219C12.4925 38.9219 11.7826 38.7065 11.1788 38.3031C10.5749 37.8996 10.1043 37.3261 9.82638 36.6552C9.54846 35.9842 9.47575 35.2459 9.61743 34.5337C9.75911 33.8214 10.1088 33.1671 10.6223 32.6536C11.1359 32.1401 11.7901 31.7904 12.5024 31.6487C13.2147 31.507 13.953 31.5797 14.6239 31.8576C15.2949 32.1355 15.8683 32.6062 16.2718 33.21C16.6753 33.8139 16.8906 34.5238 16.8906 35.25C16.8906 35.7322 16.7956 36.2097 16.6111 36.6552C16.4266 37.1007 16.1561 37.5054 15.8152 37.8464C15.4742 38.1874 15.0694 38.4578 14.6239 38.6424C14.1784 38.8269 13.7009 38.9219 13.2188 38.9219ZM28.6939 34.5156H18.3061C18.1288 33.2929 17.517 32.175 16.5827 31.3664C15.6485 30.5579 14.4543 30.1129 13.2188 30.1129C11.9832 30.1129 10.789 30.5579 9.85478 31.3664C8.92053 32.175 8.30873 33.2929 8.13137 34.5156H4.40625C4.21148 34.5156 4.02469 34.4383 3.88697 34.3005C3.74925 34.1628 3.67188 33.976 3.67188 33.7812V27.1719H31.5781V30.6069C30.8129 30.9709 30.1493 31.518 29.6462 32.1998C29.143 32.8817 28.8159 33.6771 28.6939 34.5156ZM33.7812 38.9219C33.055 38.9219 32.3451 38.7065 31.7413 38.3031C31.1374 37.8996 30.6668 37.3261 30.3889 36.6552C30.111 35.9842 30.0382 35.2459 30.1799 34.5337C30.3216 33.8214 30.6713 33.1671 31.1848 32.6536C31.6984 32.1401 32.3526 31.7904 33.0649 31.6487C33.7772 31.507 34.5155 31.5797 35.1864 31.8576C35.8574 32.1355 36.4308 32.6062 36.8343 33.21C37.2378 33.8139 37.4531 34.5238 37.4531 35.25C37.4531 36.2238 37.0663 37.1578 36.3777 37.8464C35.689 38.535 34.7551 38.9219 33.7812 38.9219ZM43.3281 33.7812C43.3281 33.976 43.2508 34.1628 43.113 34.3005C42.9753 34.4383 42.7885 34.5156 42.5938 34.5156H38.8686C38.6737 33.1664 37.9509 31.9499 36.8592 31.1336C35.7674 30.3172 34.3961 29.968 33.0469 30.1626V22.7656H43.3281V33.7812Z" fill="#2F2F2F"/>
</g>
</svg>
