<svg width="47" height="47" viewBox="0 0 47 47" fill="none" xmlns="http://www.w3.org/2000/svg">
<g id="ph:archive-box-thin">
<path id="Vector" d="M40.3135 12.8901L37.376 7.01512C37.315 6.89311 37.2211 6.79052 37.105 6.71885C36.9889 6.64719 36.8552 6.60928 36.7188 6.60938H10.2813C10.1448 6.60928 10.0111 6.64719 9.89496 6.71885C9.77887 6.79052 9.68504 6.89311 9.62398 7.01512L6.68648 12.8901C6.63561 12.9922 6.60921 13.1047 6.60938 13.2188V38.1875C6.60938 38.7718 6.84149 39.3322 7.25466 39.7453C7.66782 40.1585 8.2282 40.3906 8.8125 40.3906H38.1875C38.7718 40.3906 39.3322 40.1585 39.7453 39.7453C40.1585 39.3322 40.3906 38.7718 40.3906 38.1875V13.2188C40.3908 13.1047 40.3644 12.9922 40.3135 12.8901ZM10.7347 8.07813H36.2653L38.4684 12.4844H8.5316L10.7347 8.07813ZM38.1875 38.9219H8.8125C8.61773 38.9219 8.43094 38.8445 8.29322 38.7068C8.1555 38.5691 8.07813 38.3823 8.07813 38.1875V13.9531H38.9219V38.1875C38.9219 38.3823 38.8445 38.5691 38.7068 38.7068C38.5691 38.8445 38.3823 38.9219 38.1875 38.9219ZM29.8946 27.3867C29.9629 27.4549 30.017 27.5359 30.054 27.625C30.0909 27.7142 30.11 27.8097 30.11 27.9062C30.11 28.0028 30.0909 28.0983 30.054 28.1875C30.017 28.2766 29.9629 28.3576 29.8946 28.4258L24.0196 34.3008C23.9514 34.3691 23.8704 34.4233 23.7812 34.4602C23.6921 34.4972 23.5965 34.5162 23.5 34.5162C23.4035 34.5162 23.3079 34.4972 23.2188 34.4602C23.1296 34.4233 23.0486 34.3691 22.9804 34.3008L17.1054 28.4258C16.9676 28.288 16.8902 28.1011 16.8902 27.9062C16.8902 27.7114 16.9676 27.5245 17.1054 27.3867C17.2432 27.2489 17.4301 27.1715 17.625 27.1715C17.8199 27.1715 18.0068 27.2489 18.1446 27.3867L22.7656 32.0077V19.0938C22.7656 18.899 22.843 18.7122 22.9807 18.5745C23.1184 18.4367 23.3052 18.3594 23.5 18.3594C23.6948 18.3594 23.8816 18.4367 24.0193 18.5745C24.157 18.7122 24.2344 18.899 24.2344 19.0938V32.0077L28.8554 27.3867C28.9236 27.3184 29.0046 27.2642 29.0938 27.2273C29.1829 27.1903 29.2785 27.1713 29.375 27.1713C29.4715 27.1713 29.5671 27.1903 29.6562 27.2273C29.7454 27.2642 29.8264 27.3184 29.8946 27.3867Z" fill="#2F2F2F"/>
</g>
</svg>
