<svg width="36" height="36" viewBox="0 0 36 36" fill="none" xmlns="http://www.w3.org/2000/svg">
<g id="ei:cart">
<path id="Vector" d="M25.2003 24.4798H9.36031C9.14431 24.4798 8.92831 24.3358 8.78431 24.1918C8.64031 24.0478 8.64031 23.7598 8.71231 23.5438L10.0803 20.0878L8.71231 7.19977H4.32031V5.75977H9.36031C9.72031 5.75977 10.0083 6.04777 10.0803 6.40777L11.5203 20.0878C11.5203 20.2318 11.5203 20.3038 11.4483 20.4478L10.4403 23.0398H25.9203L25.2003 24.4798Z" fill="#2F2F2F"/>
<path id="Vector_2" d="M10.9457 20.8796L10.6577 19.4396L27.3617 15.9836V10.0796H10.0817V8.63965H28.0817C28.5137 8.63965 28.8017 8.92765 28.8017 9.35965V16.5596C28.8017 16.9196 28.5857 17.2076 28.2257 17.2796L10.9457 20.8796ZM25.9217 28.7996C24.3377 28.7996 23.0417 27.5036 23.0417 25.9196C23.0417 24.3356 24.3377 23.0396 25.9217 23.0396C27.5057 23.0396 28.8017 24.3356 28.8017 25.9196C28.8017 27.5036 27.5057 28.7996 25.9217 28.7996ZM25.9217 24.4796C25.1297 24.4796 24.4817 25.1276 24.4817 25.9196C24.4817 26.7116 25.1297 27.3596 25.9217 27.3596C26.7137 27.3596 27.3617 26.7116 27.3617 25.9196C27.3617 25.1276 26.7137 24.4796 25.9217 24.4796ZM8.64172 28.7996C7.05772 28.7996 5.76172 27.5036 5.76172 25.9196C5.76172 24.3356 7.05772 23.0396 8.64172 23.0396C10.2257 23.0396 11.5217 24.3356 11.5217 25.9196C11.5217 27.5036 10.2257 28.7996 8.64172 28.7996ZM8.64172 24.4796C7.84972 24.4796 7.20172 25.1276 7.20172 25.9196C7.20172 26.7116 7.84972 27.3596 8.64172 27.3596C9.43372 27.3596 10.0817 26.7116 10.0817 25.9196C10.0817 25.1276 9.43372 24.4796 8.64172 24.4796Z" fill="#2F2F2F"/>
</g>
</svg>
