<svg width="30" height="30" viewBox="0 0 30 30" fill="none" xmlns="http://www.w3.org/2000/svg">
<g id="radix-icons:magnifying-glass">
<path id="Vector" fill-rule="evenodd" clip-rule="evenodd" d="M19.9996 12.9996C19.9996 13.9188 19.8185 14.8291 19.4667 15.6784C19.1149 16.5276 18.5993 17.2993 17.9493 17.9493C17.2993 18.5993 16.5276 19.1149 15.6784 19.4667C14.8291 19.8185 13.9188 19.9996 12.9996 19.9996C12.0803 19.9996 11.1701 19.8185 10.3208 19.4667C9.47151 19.1149 8.69983 18.5993 8.04982 17.9493C7.39981 17.2993 6.8842 16.5276 6.53241 15.6784C6.18063 14.8291 5.99957 13.9188 5.99957 12.9996C5.99957 11.1431 6.73707 9.36258 8.04982 8.04982C9.36258 6.73707 11.1431 5.99957 12.9996 5.99957C14.8561 5.99957 16.6366 6.73707 17.9493 8.04982C19.2621 9.36258 19.9996 11.1431 19.9996 12.9996ZM18.6176 20.0316C16.8204 21.4673 14.5417 22.1605 12.2494 21.9687C9.95718 21.7768 7.82538 20.7146 6.29185 19.0001C4.75832 17.2856 3.93948 15.0489 4.00349 12.7496C4.0675 10.4502 5.00951 8.26258 6.63604 6.63604C8.26258 5.00951 10.4502 4.0675 12.7496 4.00349C15.0489 3.93948 17.2856 4.75832 19.0001 6.29185C20.7146 7.82538 21.7768 9.95718 21.9687 12.2494C22.1605 14.5417 21.4673 16.8204 20.0316 18.6176L25.7076 24.2916C25.8005 24.3845 25.8743 24.4949 25.9246 24.6164C25.9749 24.7379 26.0008 24.8681 26.0008 24.9996C26.0008 25.1311 25.9749 25.2613 25.9246 25.3827C25.8743 25.5042 25.8005 25.6146 25.7076 25.7076C25.6146 25.8005 25.5042 25.8743 25.3827 25.9246C25.2613 25.9749 25.1311 26.0008 24.9996 26.0008C24.8681 26.0008 24.7379 25.9749 24.6164 25.9246C24.4949 25.8743 24.3845 25.8005 24.2916 25.7076L18.6196 20.0316H18.6176Z" fill="#2F2F2F"/>
</g>
</svg>
