<?xml version="1.0" encoding="utf-8"?><svg xmlns="http://www.w3.org/2000/svg" xmlns:xlink="http://www.w3.org/1999/xlink"><symbol viewBox="0 0 20 20" id="arrowbottom" xmlns="http://www.w3.org/2000/svg"><g clip-path="url(#aclip0_282_653)"><path d="M16.25 13.75l-6.25 5m0 0l-6.25-5m6.25 5V1.25"/></g><defs><clipPath id="aclip0_282_653"><path transform="rotate(-180 10 10)" d="M0 0h20v20H0z"/></clipPath></defs></symbol><symbol viewBox="0 0 20 20" id="arrowright" xmlns="http://www.w3.org/2000/svg"><g clip-path="url(#bclip0_282_466)"><path d="M13.75 3.75l5 6.25m0 0l-5 6.25m5-6.25H1.25"/></g><defs><clipPath id="bclip0_282_466"><path transform="rotate(90 10 10)" d="M0 0h20v20H0z"/></clipPath></defs></symbol><symbol viewBox="0 0 28 28" id="call" xmlns="http://www.w3.org/2000/svg"><path d="M28 19.45v6.84c0 .476-.192.931-.534 1.262a1.582 1.582 0 01-1.17.446 27.438 27.438 0 01-18.257-8.036A27.438 27.438 0 01.001 1.703 1.58 1.58 0 01.448.533 1.76 1.76 0 011.71 0h6.84a1.69 1.69 0 011.662 1.442l.904 6.324a1.688 1.688 0 01-.475 1.425l-2.683 2.683a.564.564 0 00-.094.683 22.965 22.965 0 007.578 7.578c.223.129.504.09.684-.094l2.682-2.682a1.686 1.686 0 011.426-.475l6.324.903A1.689 1.689 0 0128 19.45z"/></symbol><symbol viewBox="0 0 36 36" id="cart" xmlns="http://www.w3.org/2000/svg"><path d="M25.2 24.48H9.36c-.216 0-.432-.144-.576-.288-.144-.144-.144-.432-.072-.648l1.368-3.456L8.712 7.2H4.32V5.76h5.04c.36 0 .648.288.72.648l1.44 13.68c0 .144 0 .216-.072.36L10.44 23.04h15.48l-.72 1.44z"/><path d="M10.946 20.88l-.288-1.44 16.704-3.456V10.08h-17.28V8.64h18c.432 0 .72.288.72.72v7.2c0 .36-.216.648-.576.72l-17.28 3.6zm14.976 7.92a2.888 2.888 0 01-2.88-2.88 2.888 2.888 0 012.88-2.88 2.888 2.888 0 012.88 2.88 2.888 2.888 0 01-2.88 2.88zm0-4.32c-.792 0-1.44.648-1.44 1.44 0 .792.648 1.44 1.44 1.44.792 0 1.44-.648 1.44-1.44 0-.792-.648-1.44-1.44-1.44zM8.642 28.8a2.888 2.888 0 01-2.88-2.88 2.888 2.888 0 012.88-2.88 2.888 2.888 0 012.88 2.88 2.888 2.888 0 01-2.88 2.88zm0-4.32c-.792 0-1.44.648-1.44 1.44 0 .792.648 1.44 1.44 1.44.792 0 1.44-.648 1.44-1.44 0-.792-.648-1.44-1.44-1.44z"/></symbol><symbol viewBox="0 0 25 25" id="close" xmlns="http://www.w3.org/2000/svg"><path d="M23.649 0L12.5 11.149 1.351 0 0 1.351 11.149 12.5 0 23.649 1.351 25 12.5 13.851 23.649 25 25 23.649 13.851 12.5 25 1.351 23.649 0z"/></symbol><symbol viewBox="0 0 29 29" id="download" xmlns="http://www.w3.org/2000/svg"><g stroke-linecap="round" stroke-linejoin="round"><path d="M7.793 7.794H5.74a2.417 2.417 0 00-2.417 2.417v13.23a2.247 2.247 0 002.236 2.236h13.23a2.416 2.416 0 002.418-2.416v-2.055m2.797-12.053h-3.13V15.4m0-3.123h2.042M10.03 3.323a2.248 2.248 0 00-2.236 2.235v13.413a2.248 2.248 0 002.235 2.235h13.413a2.247 2.247 0 002.235-2.235V5.558a2.247 2.247 0 00-2.235-2.235H10.029z"/><path d="M9.467 15.388V9.141h2.102a2.096 2.096 0 110 4.193H9.467M15.17 15.4V9.13h1.063a3.136 3.136 0 010 6.271H15.17z"/></g></symbol><symbol viewBox="0 0 25 25" id="minus" xmlns="http://www.w3.org/2000/svg"><path d="M3.516 11.719h17.968v1.562H3.516V11.72z"/></symbol><symbol viewBox="0 0 17 16" id="next" xmlns="http://www.w3.org/2000/svg"><path d="M6.375 3.335L10.625 8l-4.25 4.667"/></symbol><symbol viewBox="0 0 25 25" id="plus" xmlns="http://www.w3.org/2000/svg"><path d="M21.484 11.719h-8.203V3.516H11.72v8.203H3.516v1.562h8.203v8.203h1.562v-8.203h8.203V11.72z"/></symbol><symbol viewBox="0 0 17 16" id="prev" xmlns="http://www.w3.org/2000/svg"><path d="M10.625 3.335L6.375 8l4.25 4.667"/></symbol><symbol viewBox="0 0 30 30" id="search" xmlns="http://www.w3.org/2000/svg"><path fill-rule="evenodd" clip-rule="evenodd" d="M20 13a7 7 0 11-14 0 7 7 0 0114 0zm-1.382 7.032a9 9 0 111.414-1.414l5.676 5.674a1 1 0 01-1.416 1.416l-5.672-5.676h-.002z"/></symbol><symbol viewBox="0 0 28 28" id="wa" xmlns="http://www.w3.org/2000/svg"><path fill-rule="evenodd" clip-rule="evenodd" d="M14 0C6.262 0 0 6.258 0 14c0 2.92.89 5.62 2.472 7.94a.7.7 0 01.087.602L1.137 27.3l4.66-1.608a.7.7 0 01.602.077 13.917 13.917 0 007.6 2.231C21.743 28 28 21.742 28 14S21.742 0 14 0zM8.27 6.103l2.548 4.211-1.06 1.05a.7.7 0 00-.11.842c1.62 2.804 3.537 4.985 6.223 6.17a.7.7 0 00.777-.143l1.127-1.126 4.112 2.57c-.455 1.025-1.049 1.635-1.728 1.99-.787.412-1.747.49-2.844.263-2.193-.455-4.841-2.178-7-4.386-2.158-2.208-3.829-4.893-4.254-7.077-.213-1.092-.12-2.033.284-2.778.347-.642.937-1.192 1.925-1.586z"/></symbol></svg>